<?xml version="1.0" encoding="UTF-8"?>
<svg version="1.1" xmlns="http://www.w3.org/2000/svg" width="280" height="272">
<path d="M0 0 C0.82564453 0.23605957 1.65128906 0.47211914 2.50195312 0.71533203 C25.06093187 7.42848937 43.94937571 18.85660768 61 35 C62.34384766 36.24716797 62.34384766 36.24716797 63.71484375 37.51953125 C70.87568154 44.37907151 76.57395929 51.73094506 82 60 C82.62648438 60.94230469 83.25296875 61.88460937 83.8984375 62.85546875 C101.56237338 91.18970073 107.2586197 128.8104489 99.83178711 161.31494141 C99.26486496 163.55836394 98.64806935 165.77876229 98 168 C97.79632813 168.71575195 97.59265625 169.43150391 97.3828125 170.16894531 C87.31243198 204.40513092 63.11310402 233.71955652 32.04760742 251.01171875 C-0.20195572 268.32761842 -40.50634115 274.15666943 -76 264 C-76.82564453 263.76394043 -77.65128906 263.52788086 -78.50195312 263.28466797 C-101.06093187 256.57151063 -119.94937571 245.14339232 -137 229 C-137.89589844 228.16855469 -138.79179687 227.33710938 -139.71484375 226.48046875 C-146.87568154 219.62092849 -152.57395929 212.26905494 -158 204 C-158.62648437 203.05769531 -159.25296875 202.11539063 -159.8984375 201.14453125 C-177.56237338 172.81029927 -183.2586197 135.1895511 -175.83178711 102.68505859 C-175.26486496 100.44163606 -174.64806935 98.22123771 -174 96 C-173.79632813 95.28424805 -173.59265625 94.56849609 -173.3828125 93.83105469 C-163.31243198 59.59486908 -139.11310402 30.28044348 -108.04760742 12.98828125 C-75.79804428 -4.32761842 -35.49365885 -10.15666943 0 0 Z " fill="#FDFDFE" transform="translate(178,4)"/>
<path d="M0 0 C0.82564453 0.23605957 1.65128906 0.47211914 2.50195312 0.71533203 C25.06093187 7.42848937 43.94937571 18.85660768 61 35 C62.34384766 36.24716797 62.34384766 36.24716797 63.71484375 37.51953125 C70.87568154 44.37907151 76.57395929 51.73094506 82 60 C82.62648438 60.94230469 83.25296875 61.88460937 83.8984375 62.85546875 C101.56237338 91.18970073 107.2586197 128.8104489 99.83178711 161.31494141 C99.26486496 163.55836394 98.64806935 165.77876229 98 168 C97.79632813 168.71575195 97.59265625 169.43150391 97.3828125 170.16894531 C87.31243198 204.40513092 63.11310402 233.71955652 32.04760742 251.01171875 C-0.20195572 268.32761842 -40.50634115 274.15666943 -76 264 C-76.82564453 263.76394043 -77.65128906 263.52788086 -78.50195312 263.28466797 C-101.06093187 256.57151063 -119.94937571 245.14339232 -137 229 C-137.89589844 228.16855469 -138.79179687 227.33710938 -139.71484375 226.48046875 C-146.87568154 219.62092849 -152.57395929 212.26905494 -158 204 C-158.62648437 203.05769531 -159.25296875 202.11539063 -159.8984375 201.14453125 C-177.56237338 172.81029927 -183.2586197 135.1895511 -175.83178711 102.68505859 C-175.26486496 100.44163606 -174.64806935 98.22123771 -174 96 C-173.79632813 95.28424805 -173.59265625 94.56849609 -173.3828125 93.83105469 C-163.31243198 59.59486908 -139.11310402 30.28044348 -108.04760742 12.98828125 C-75.79804428 -4.32761842 -35.49365885 -10.15666943 0 0 Z M-68 11 C-69.20785156 11.30164063 -70.41570312 11.60328125 -71.66015625 11.9140625 C-90.38458653 16.92626038 -107.22053585 25.52358775 -122 38 C-122.51159668 38.42651855 -123.02319336 38.85303711 -123.55029297 39.29248047 C-146.90975804 58.97725646 -163.31715502 88.37255983 -166 119 C-167.52100405 142.89303092 -164.13687857 165.69441799 -153 187 C-152.4946875 188.02996094 -151.989375 189.05992187 -151.46875 190.12109375 C-136.64149065 219.15780999 -109.45617507 239.26465145 -79.3125 250.1875 C-77.21886867 250.82722069 -75.11300825 251.42752218 -73 252 C-72.34064453 252.18191895 -71.68128906 252.36383789 -71.00195312 252.55126953 C-37.39406974 261.48166622 -2.1726466 255.61130834 28 239 C56.76683131 222.01103506 76.45094598 195.7716687 86 164 C86.309375 163.00871094 86.61875 162.01742187 86.9375 160.99609375 C95.41647171 132.33879995 89.7147237 99.80283029 75.85498047 73.85644531 C59.01829878 43.69218607 31.36628603 22.14327463 -1.75 12.5625 C-23.18666929 6.74148574 -46.35468166 5.45234995 -68 11 Z " fill="#4370DF" transform="translate(178,4)"/>
<path d="M0 0 C1.37250539 21.14674972 -6.82043565 41.48842492 -20.4375 57.375 C-24.23542495 61.45113751 -28.0363911 64.48510483 -33 67 C-33.78375 67.4125 -34.5675 67.825 -35.375 68.25 C-43.89349544 70.68385584 -51.32311163 70.56770342 -59.1875 66.25 C-65.35923315 61.31261348 -67.69030841 56.91875327 -70.10546875 49.48828125 C-70.9588383 46.80118944 -70.9588383 46.80118944 -73 44 C-75.26907725 51.95114672 -74.84934524 59.10567952 -71.125 66.5 C-70.09971347 68.34254392 -69.05972846 70.17704741 -68 72 C-65.54737822 76.36386217 -65.22779941 80.06604466 -66 85 C-69.12326074 93.00426358 -75.87735645 97.64689214 -83.375 101.25 C-88.10598546 103.23156459 -92.9503028 104.19879543 -98 105 C-87.41153775 105.41343237 -76.61010032 104.83792433 -68 98 C-62.28578176 92.02112323 -61.03030493 86.10656892 -61 78 C-48.59066959 74.43203701 -33.05889356 70.57080052 -20.88671875 77.140625 C-17.95142444 79.15826001 -15.9817553 81.02736705 -14 84 C-13.2545546 88.0999497 -13.25240626 92.08616003 -14.78125 96 C-21.73322218 105.98231903 -39.33971679 108.05970103 -50.4296875 110.23828125 C-59.07494201 111.75339654 -67.66478697 112.16592022 -76.4296875 112.203125 C-77.50010284 112.20882507 -78.57051819 112.21452515 -79.67337036 112.22039795 C-81.93067454 112.2297939 -84.18799209 112.23636026 -86.4453125 112.24023438 C-89.83098542 112.24987467 -93.2160332 112.28092409 -96.6015625 112.3125 C-149.5997506 112.57039459 -149.5997506 112.57039459 -164.0625 98.3125 C-165.0215625 97.1678125 -165.0215625 97.1678125 -166 96 C-166.33 95.67 -166.66 95.34 -167 95 C-167.4375 92.25 -167.4375 92.25 -167 89 C-162.32706436 84.32706436 -158.73482082 82.81633272 -152.25 82.5 C-145.27773731 82.5 -139.62336966 84.25556468 -133.0625 86.5 C-124.84583356 89.24796474 -117.36765102 90.6875 -108.6875 90.6875 C-107.76396729 90.69394531 -106.84043457 90.70039063 -105.88891602 90.70703125 C-97.94015096 90.49923926 -91.36098392 88.15610289 -84.6875 83.875 C-81.09229879 80.0289708 -79.10193311 75.78980332 -77 71 C-77.33 70.67 -77.66 70.34 -78 70 C-78.61875 70.86625 -79.2375 71.7325 -79.875 72.625 C-86.10468187 80.06894189 -95.98992729 84.45849178 -105.51171875 85.31640625 C-117.43116736 85.6900189 -126.29871176 82.78256255 -136 76 C-132.92541754 75.01394237 -131.12541255 75.02957226 -128.0625 76 C-124.65318028 76.91546548 -122.37756586 77.36928346 -119 76 C-116.72204485 73.93899296 -114.69227788 71.83030874 -112.7265625 69.47265625 C-110.36072807 67.45473865 -107.94396972 66.79264376 -105 65.8125 C-90.61992246 60.41797591 -79.27748729 49.45750764 -72.828125 35.46875 C-71.45545691 31.37664513 -71.10054667 27.2960848 -71 23 C-71.30550781 23.65484375 -71.61101562 24.3096875 -71.92578125 24.984375 C-78.78872236 38.67159276 -89.20825351 49.38032441 -103.6875 54.9375 C-104.780625 55.288125 -105.87375 55.63875 -107 56 C-107.5625 53.375 -107.5625 53.375 -107 50 C-103.59275612 46.85856947 -99.40804239 44.78926143 -95.38671875 42.53515625 C-85.90051953 37.10830176 -78.49772745 29.04030361 -75.1796875 18.359375 C-74.70989342 16.25522686 -74.34329812 14.12844833 -74 12 C-68.81538883 13.41398487 -65.66705794 15.11800002 -62.93505859 19.84106445 C-61.92065411 22.18319992 -61.57260957 24.13564399 -61.2890625 26.66796875 C-61.17820312 27.56193359 -61.06734375 28.45589844 -60.953125 29.37695312 C-60.73672868 31.23049063 -60.52566929 33.08466008 -60.3203125 34.93945312 C-59.22039347 43.67006046 -57.00161415 51.22366833 -50 57 C-45.16445522 59.83738578 -40.27963385 59.72006721 -34.8828125 58.53515625 C-29.85520731 56.88211096 -25.41159802 54.09391763 -22 50 C-22 49.01 -22 48.02 -22 47 C-26.34093558 47.50087718 -28.75243176 50.28264698 -32 53 C-36.34388336 55.40056712 -40.1496799 55.16441763 -45 55 C-43.6507413 52.3014826 -42.23998637 52.08431497 -39.5 50.875 C-29.00844331 45.74147084 -20.16600253 36.78762578 -16.25 25.625 C-15.50307514 23.09175483 -14.90337383 20.56063511 -14.3359375 17.98046875 C-12.58873772 10.19486972 -11.03390303 5.81435095 -4.3125 1.125 C-2 0 -2 0 0 0 Z " fill="#06415E" transform="translate(231,105)"/>
<path d="M0 0 C4.31320068 1.75722991 7.9031084 4.8062168 10 9 C10.88240087 15.98901596 11.0387078 21.56185996 6.625 27.3125 C4.7265625 29.48828125 4.7265625 29.48828125 3 31 C2.34 31 1.68 31 1 31 C1.268125 32.27875 1.53625 33.5575 1.8125 34.875 C1.96332031 35.59429687 2.11414063 36.31359375 2.26953125 37.0546875 C2.92308838 39.37046549 2.92308838 39.37046549 6 41 C5.40876934 48.09476795 3.38136179 54.09998876 -1.9375 59.0625 C-6.21014277 62.48061422 -11.11783478 64.7933456 -16.01171875 67.19140625 C-21.86577886 70.73445178 -23.5263652 74.89472172 -25.375 81.3125 C-27.62198962 88.58695224 -30.33851241 94.1093519 -36.375 98.875 C-44.57797032 102.39055871 -52.37707473 103.17161252 -60.83203125 99.90625 C-75.48678316 92.52763365 -85.21198538 78.15417929 -91.0078125 63.125 C-94.22943082 52.97817066 -95.48175734 42.59716881 -96 32 C-91.43289252 33.01381912 -87.66067187 34.69505409 -84.83203125 38.62109375 C-82.69099984 42.56682597 -81.571694 46.51303927 -80.5625 50.875 C-77.27762005 64.7097325 -69.00729324 75.37272567 -57 83 C-55.02895087 84.05591918 -53.03911848 85.08239669 -51 86 C-51 86.33 -51 86.66 -51 87 C-57.83535435 87.6102995 -61.61922623 86.23542059 -67 82 C-67.5259375 81.46375 -68.051875 80.9275 -68.59375 80.375 C-70.30758283 78.69925235 -71.67061715 78.40161773 -74 78 C-73.42961726 81.42229645 -72.64076867 83.47309193 -69.93359375 85.69921875 C-62.65697647 90.52304369 -57.8386237 91.8329593 -49 91 C-42.56600924 87.89789731 -39.02833393 83.11008984 -36.63671875 76.44140625 C-35.85798091 73.45544828 -35.54284138 70.50187962 -35.1875 67.4375 C-34.32622963 61.38760079 -32.89013906 57.75492821 -28 54 C-25.43624854 52.39765534 -22.76782959 51.20719599 -20 50 C-17.88858809 49.01538987 -15.78473193 48.01446321 -13.6875 47 C-12.68074219 46.525625 -11.67398438 46.05125 -10.63671875 45.5625 C-7.95697171 43.97450175 -6.64718447 42.60851056 -5 40 C-5.40347656 40.36351562 -5.80695313 40.72703125 -6.22265625 41.1015625 C-11.29231924 45.29937262 -16.49629313 47.62877969 -22.63110352 49.81884766 C-26.72055637 51.31702187 -29.74932807 53.1036078 -33 56 C-32.92180952 53.34152355 -32.46969074 51.55037381 -30.7265625 49.5078125 C-26.6448319 45.80934299 -22.23566125 43.43567923 -17.234375 41.17578125 C-14.99389335 39.99678653 -13.58155105 38.96692899 -12 37 C-11.33278464 34.08559301 -11.33278464 34.08559301 -12 31 C-14.31256494 28.27073609 -14.31256494 28.27073609 -17 26 C-19 23 -19 23 -19 20.625 C-17.27997676 16.10993899 -13.86590997 13.90790921 -9.671875 11.8671875 C-8.10882854 11.18650598 -6.53620451 10.52722459 -4.953125 9.89453125 C-2.82457973 9.05687625 -2.82457973 9.05687625 -1 7 C-0.59952556 4.67724823 -0.2602896 2.34260643 0 0 Z " fill="#495790" transform="translate(145,73)"/>
<path d="M0 0 C2.85108544 2.43530214 4.72344073 4.04142404 5.40625 7.796875 C5.56666022 12.10121588 5.51944555 15.69483459 3 19.3125 C-10.56139934 32.74745273 -39.62754403 33.69005941 -57.4296875 33.765625 C-59.03531052 33.77417511 -59.03531052 33.77417511 -60.67337036 33.78289795 C-62.93067454 33.7922939 -65.18799209 33.79886026 -67.4453125 33.80273438 C-70.83098542 33.81237467 -74.2160332 33.84342409 -77.6015625 33.875 C-99.81247824 33.98308058 -121.47740671 31.6407295 -142 22.5625 C-142 21.9025 -142 21.2425 -142 20.5625 C-137.19987942 19.33547531 -132.48289713 19.37130254 -127.5625 19.375 C-126.66869629 19.37435547 -125.77489258 19.37371094 -124.85400391 19.37304688 C-119.76796127 19.41325997 -114.90458638 19.73111468 -109.875 20.5625 C-92.50482917 23.39969594 -73.01742781 22.6343388 -58 12.5625 C-53.81563768 8.75853426 -50.76724948 4.48205463 -48 -0.4375 C-47.67 -0.4375 -47.34 -0.4375 -47 -0.4375 C-46.43439632 4.99229533 -47.28785718 8.1385454 -50.390625 12.64453125 C-57.69886586 21.35410956 -68.11735826 24.8358178 -79 26.5625 C-68.41153775 26.97593237 -57.61010032 26.40042433 -49 19.5625 C-43.28578176 13.58362323 -42.03030493 7.66906892 -42 -0.4375 C-29.02190211 -4.1689965 -12.13670212 -8.34241223 0 0 Z " fill="#05425D" transform="translate(212,183.4375)"/>
<path d="M0 0 C0.11214844 1.01707031 0.11214844 1.01707031 0.2265625 2.0546875 C1.15427551 8.6214404 2.91510056 13.2352815 6.66015625 18.7109375 C8.15281252 21.26107328 8.80517746 23.04983012 9 26 C5.66151863 33.90619438 -1.47208792 40.46906165 -9.0625 44.25 C-24.58960903 50.39725136 -41.01795721 50.12276702 -57.2109375 47.44921875 C-61.98845706 46.88281179 -66.69313724 46.80901613 -71.5 46.8125 C-72.34933105 46.81185547 -73.19866211 46.81121094 -74.07373047 46.81054688 C-77.64329462 46.84175308 -80.89387452 46.98008629 -84.4140625 47.640625 C-87 48 -87 48 -89.875 45.9375 C-92 43 -92 43 -92.6875 40 C-91.71035643 35.73610078 -89.5319528 34.42388917 -86 32 C-76.23454764 28.74484921 -67.39464858 31.30752629 -58.0625 34.5 C-49.84583356 37.24796474 -42.36765102 38.6875 -33.6875 38.6875 C-32.76396729 38.69394531 -31.84043457 38.70039063 -30.88891602 38.70703125 C-22.94015096 38.49923926 -16.36098392 36.15610289 -9.6875 31.875 C-6.09229879 28.0289708 -4.10193311 23.78980332 -2 19 C-2.33 18.67 -2.66 18.34 -3 18 C-3.61875 18.86625 -4.2375 19.7325 -4.875 20.625 C-11.10468187 28.06894189 -20.98992729 32.45849178 -30.51171875 33.31640625 C-42.43116736 33.6900189 -51.29871176 30.78256255 -61 24 C-57.92541754 23.01394237 -56.12541255 23.02957226 -53.0625 24 C-49.67283224 24.91816603 -47.37375624 25.31201632 -44 24 C-43.43023437 23.3503125 -42.86046875 22.700625 -42.2734375 22.03125 C-39.35396994 19.42279101 -37.21842127 19.21301789 -33.375 18.625 C-22.43822638 16.48274537 -15.09024371 10.51512564 -6.64453125 3.60742188 C-2.20385979 0 -2.20385979 0 0 0 Z " fill="#498DB6" transform="translate(156,157)"/>
<path d="M0 0 C4.31320068 1.75722991 7.9031084 4.8062168 10 9 C10.88240087 15.98901596 11.0387078 21.56185996 6.625 27.3125 C4.7265625 29.48828125 4.7265625 29.48828125 3 31 C2.34 31 1.68 31 1 31 C1.350625 32.19625 1.70125 33.3925 2.0625 34.625 C3.19046034 39.31797366 3.40438753 42.68985113 0.80078125 46.97265625 C-3.89771278 53.5702791 -8.64525928 57.42519516 -15.9375 60.8125 C-25.98688144 65.73793757 -29.85843017 73.06319605 -34.421875 82.92578125 C-35.76349953 85.5392924 -36.68698258 87.23981916 -39 89 C-39.66 89 -40.32 89 -41 89 C-41.33 88.01 -41.66 87.02 -42 86 C-40.69791204 83.97951869 -39.36011609 81.98188345 -38 80 C-36.37634655 75.83320476 -35.69713024 71.9965415 -35.25 67.5625 C-34.34858434 61.47447732 -32.92531814 57.78194072 -28 54 C-25.43624854 52.39765534 -22.76782959 51.20719599 -20 50 C-17.88858809 49.01538987 -15.78473193 48.01446321 -13.6875 47 C-12.68074219 46.525625 -11.67398438 46.05125 -10.63671875 45.5625 C-7.95697171 43.97450175 -6.64718447 42.60851056 -5 40 C-5.40347656 40.36351562 -5.80695313 40.72703125 -6.22265625 41.1015625 C-11.29231924 45.29937262 -16.49629313 47.62877969 -22.63110352 49.81884766 C-26.72055637 51.31702187 -29.74932807 53.1036078 -33 56 C-32.92180952 53.34152355 -32.46969074 51.55037381 -30.7265625 49.5078125 C-26.6448319 45.80934299 -22.23566125 43.43567923 -17.234375 41.17578125 C-14.99389335 39.99678653 -13.58155105 38.96692899 -12 37 C-11.33278464 34.08559301 -11.33278464 34.08559301 -12 31 C-14.31256494 28.27073609 -14.31256494 28.27073609 -17 26 C-19 23 -19 23 -19 20.625 C-17.27997676 16.10993899 -13.86590997 13.90790921 -9.671875 11.8671875 C-8.10882854 11.18650598 -6.53620451 10.52722459 -4.953125 9.89453125 C-2.82457973 9.05687625 -2.82457973 9.05687625 -1 7 C-0.59952556 4.67724823 -0.2602896 2.34260643 0 0 Z " fill="#8182CB" transform="translate(145,73)"/>
<path d="M0 0 C1.11401766 17.16412395 -4.37565167 33.37772475 -13 48 C-13.99 48 -14.98 48 -16 48 C-18.15028304 48.94978897 -18.15028304 48.94978897 -20 50 C-20 49.01 -20 48.02 -20 47 C-22.20152247 46.49246656 -22.20152247 46.49246656 -25 47 C-26.8931073 48.39719081 -28.57836448 49.94645492 -30.31640625 51.53125 C-34.84357424 55.48070514 -39.2964591 55.19334037 -45 55 C-43.6507413 52.3014826 -42.23998637 52.08431497 -39.5 50.875 C-29.00844331 45.74147084 -20.16600253 36.78762578 -16.25 25.625 C-15.50307514 23.09175483 -14.90337383 20.56063511 -14.3359375 17.98046875 C-12.58873772 10.19486972 -11.03390303 5.81435095 -4.3125 1.125 C-2 0 -2 0 0 0 Z " fill="#515E9A" transform="translate(231,105)"/>
<path d="M0 0 C0.93504239 2.53630249 1.07794862 3.75397468 0.25 6.3671875 C-4.18166676 15.25821894 -9.00832495 19.58946829 -18.24584961 23.15332031 C-22.73718404 24.53404434 -27.01248314 24.72012683 -31.6875 24.6875 C-32.67355225 24.6875 -33.65960449 24.6875 -34.67553711 24.6875 C-43.31923874 24.45745772 -50.83168864 22.27215865 -58.96948242 19.51513672 C-66.99702863 16.8325595 -75.05561051 14.74591942 -83.328125 17.8828125 C-85.45995684 18.9939037 -85.45995684 18.9939037 -88 21 C-88.66 21.33 -89.32 21.66 -90 22 C-89.49445676 17.57649669 -88.04984798 15.21928398 -85 12 C-77.58838177 6.81186724 -67.75140519 6.61525873 -59 8 C-55.55314235 9.45331084 -52.75032969 11.10753632 -49.7109375 13.2734375 C-41.68759815 18.38340291 -30.95806179 18.32067868 -21.8984375 16.3125 C-12.48798107 13.13150064 -5.25663126 8.47843751 0 0 Z " fill="#9DC9F6" transform="translate(154,172)"/>
<path d="M0 0 C0 0.66 0 1.32 0 2 C1.98 2.33 3.96 2.66 6 3 C6 3.66 6 4.32 6 5 C5.34 5 4.68 5 4 5 C4 6.32 4 7.64 4 9 C1.95920995 9.1968121 -0.08270007 9.38202831 -2.125 9.5625 C-3.26195312 9.66691406 -4.39890625 9.77132812 -5.5703125 9.87890625 C-8.92783072 9.99745188 -11.69744972 9.55311661 -15 9 C-18.3340009 8.85108951 -21.66319361 8.8602788 -25 8.875 C-25.8765625 8.87113281 -26.753125 8.86726562 -27.65625 8.86328125 C-31.37627668 8.8688837 -34.77596457 8.95859663 -38.4453125 9.63671875 C-41 10 -41 10 -43.875 7.9375 C-46 5 -46 5 -46.6875 2 C-45.71035643 -2.26389922 -43.5319528 -3.57611083 -40 -6 C-26.62050972 -10.45983009 -12.62832976 -4.29539467 0 0 Z " fill="#516CA4" transform="translate(110,195)"/>
<path d="M0 0 C4.31320068 1.75722991 7.9031084 4.8062168 10 9 C10.88240087 15.98901596 11.0387078 21.56185996 6.625 27.3125 C4.7265625 29.48828125 4.7265625 29.48828125 3 31 C2.34 31 1.68 31 1 31 C1 31.66 1 32.32 1 33 C-1.0625 35.1875 -1.0625 35.1875 -4 37 C-7.8125 36.75 -7.8125 36.75 -11 36 C-11.061875 35.278125 -11.12375 34.55625 -11.1875 33.8125 C-12.25010039 30.13426788 -14.22416973 28.57272074 -17 26 C-19 23 -19 23 -19 20.625 C-17.27997676 16.10993899 -13.86590997 13.90790921 -9.671875 11.8671875 C-8.10882854 11.18650598 -6.53620451 10.52722459 -4.953125 9.89453125 C-2.82457973 9.05687625 -2.82457973 9.05687625 -1 7 C-0.59952556 4.67724823 -0.2602896 2.34260643 0 0 Z " fill="#39508B" transform="translate(145,73)"/>
<path d="M0 0 C0.99 0.33 1.98 0.66 3 1 C2.40876934 8.09476795 0.38136179 14.09998876 -4.9375 19.0625 C-9.21014277 22.48061422 -14.11783478 24.7933456 -19.01171875 27.19140625 C-24.86577886 30.73445178 -26.5263652 34.89472172 -28.375 41.3125 C-30.62198962 48.58695224 -33.33851241 54.1093519 -39.375 58.875 C-46.7731277 62.04562616 -53.10378416 62.55456749 -61 61 C-64.1875 59.4375 -64.1875 59.4375 -66 58 C-63.83704303 57.27901434 -61.65066535 56.6270011 -59.453125 56.01953125 C-58.05199308 55.61750192 -56.65095465 55.21514664 -55.25 54.8125 C-54.21359375 54.53696289 -54.21359375 54.53696289 -53.15625 54.25585938 C-47.02831079 52.45318553 -42.24999147 49.52466286 -38.75585938 44.05102539 C-37.64275718 41.93608143 -36.62575246 39.79517646 -35.625 37.625 C-30.13232966 26.61263656 -23.8938205 21.76935639 -12.80859375 16.55859375 C-6.12308938 12.84855725 -2.49594914 7.0473858 0 0 Z " fill="#093F5B" transform="translate(148,113)"/>
<path d="M0 0 C2.02288564 2.02288564 2.56715018 3.22719412 3.625 5.8125 C5.98344943 10.59031822 9.03298072 13.10110413 14 15 C19.9991329 16.08884786 25.68576453 14.91634873 31 12 C34.66493543 9.35951502 37.48838068 6.76742897 40 3 C40.495 3.99 40.495 3.99 41 5 C43.33075929 4.04134491 43.33075929 4.04134491 45 1 C45.6875 2.7265625 45.6875 2.7265625 46 5 C40.83772842 14.33963608 31.88005631 21.30790123 22 25 C14.28453626 26.79755131 7.80329484 26.08808344 0.8125 22.25 C-3.10488677 19.11609058 -6.14116309 16.12183237 -8.0625 11.375 C-8 9 -8 9 -6.1875 6.875 C-5.465625 6.25625 -4.74375 5.6375 -4 5 C-3.34 4.01 -2.68 3.02 -2 2 C-1.67 2.33 -1.34 2.66 -1 3 C-0.67 2.01 -0.34 1.02 0 0 Z " fill="#093F5C" transform="translate(171,149)"/>
<path d="M0 0 C-1.45941817 9.24844773 -7.30461994 16.18998924 -14.3125 22.08203125 C-22.99413653 28.2777922 -32.60853464 29.09517895 -43 28 C-43.99 27.34 -44.98 26.68 -46 26 C-45.195625 25.38125 -44.39125 24.7625 -43.5625 24.125 C-40.96125481 22.25835959 -40.96125481 22.25835959 -40 20 C-37.86882444 19.51389041 -35.71822982 19.11199553 -33.5625 18.75 C-22.56233679 16.48558699 -15.16172849 10.57359267 -6.64453125 3.60742188 C-2.20385979 0 -2.20385979 0 0 0 Z " fill="#8685CB" transform="translate(156,157)"/>
<path d="M0 0 C0.33 0 0.66 0 1 0 C1.96776136 11.12925566 -4.38645886 20.14296535 -11 28.5390625 C-18.70426282 37.64660176 -27.33643413 43.34343944 -39 46 C-37.52279635 36.15197568 -37.52279635 36.15197568 -34.04296875 33.51953125 C-31.72437196 32.55180346 -29.38812673 31.77762143 -27 31 C-24.60363294 29.75598431 -22.32081864 28.38261536 -20 27 C-20 26.34 -20 25.68 -20 25 C-18.87474845 23.97350723 -17.69717355 23.00412304 -16.5 22.0625 C-9.4040082 16.03593958 -4.35361238 8.16302321 0 0 Z " fill="#F4C7B8" transform="translate(160,127)"/>
<path d="M0 0 C10.66224287 -0.62110153 10.66224287 -0.62110153 15.5 1.625 C20.02377435 5.92258564 22.83791066 10.0839216 23.09765625 16.359375 C23.08605469 17.14828125 23.07445313 17.9371875 23.0625 18.75 C23.05347656 19.54921875 23.04445313 20.3484375 23.03515625 21.171875 C23.02355469 21.77515625 23.01195313 22.3784375 23 23 C17.03946436 23.4967113 12.96798702 22.3886901 8 19 C3.28347462 14.66128415 0.1238085 9.55870907 -0.1875 3.125 C-0.125625 2.09375 -0.06375 1.0625 0 0 Z " fill="#8081CC" transform="translate(65,56)"/>
<path d="M0 0 C0.98484375 0.01804688 1.9696875 0.03609375 2.984375 0.0546875 C4.10585937 0.08949219 4.10585937 0.08949219 5.25 0.125 C5.21844571 7.82424748 3.68795692 12.59768698 -1.75 18.125 C-6.49257771 22.23523401 -10.68782902 22.85557018 -16.75 23.125 C-17.96166097 16.81852364 -18.09832114 11.78250813 -14.75 6.125 C-10.16584011 1.65838267 -6.3773481 -0.15184162 0 0 Z " fill="#8C8CD1" transform="translate(209.75,55.875)"/>
<path d="M0 0 C0.8971875 0.309375 0.8971875 0.309375 1.8125 0.625 C1.65089451 10.32132959 -2.77294918 18.08892769 -9.125 25.3125 C-15.28594665 31.06177049 -23.70919694 34.88584847 -31.1875 38.625 C-31.68995584 33.85166951 -31.84337683 30.80271933 -28.8125 26.9375 C-26.22914652 24.21401178 -23.74142959 22.85134469 -20.3125 21.375 C-13.97929275 18.49539972 -10.55517926 13.57621751 -7.1875 7.625 C-6.8471875 6.56152344 -6.506875 5.49804688 -6.15625 4.40234375 C-4.982743 1.03797489 -3.76745478 -0.64584939 0 0 Z " fill="#9DC7F8" transform="translate(155.1875,116.375)"/>
<path d="M0 0 C1.49629715 2.37647194 2.03152803 3.63714104 1.78515625 6.47265625 C-0.62929843 14.24455765 -6.13052815 19.91073182 -13 24 C-22.91327981 29.09545849 -33.12288135 30.79825041 -44.1484375 28.28125 C-49.90474904 26.28185888 -55.01345259 23.48629676 -60 20 C-56.09340424 18.48868923 -53.54603516 19.61571806 -49.6875 20.9375 C-39.36447772 24.01723742 -28.68435043 24.74196782 -18.5625 20.44921875 C-9.97056174 15.59005854 -4.45254062 8.66978437 0 0 Z " fill="#0A425C" transform="translate(155,161)"/>
<path d="M0 0 C1.22009766 0.86625 1.22009766 0.86625 2.46484375 1.75 C2.46484375 2.08 2.46484375 2.41 2.46484375 2.75 C0.81484375 2.75 -0.83515625 2.75 -2.53515625 2.75 C-2.53515625 3.74 -2.53515625 4.73 -2.53515625 5.75 C-6.85594883 6.03179082 -10.00572752 5.69062945 -14.09765625 4.25 C-20.91734471 2.07061944 -29.06568058 1.12073301 -35.9140625 3.6171875 C-37.99504762 4.75641103 -37.99504762 4.75641103 -40.53515625 6.75 C-41.52515625 7.245 -41.52515625 7.245 -42.53515625 7.75 C-42.02961301 3.32649669 -40.58500423 0.96928398 -37.53515625 -2.25 C-25.82827697 -10.4448155 -11.0716614 -7.34999823 0 0 Z " fill="#D5B7FA" transform="translate(106.53515625,186.25)"/>
<path d="M0 0 C5.75 1.625 5.75 1.625 8 5 C6.948125 6.1446875 6.948125 6.1446875 5.875 7.3125 C3.54572986 10.07527319 1.98308527 12.89480546 0.375 16.125 C-6.82028672 29.63226458 -18.43163141 39.32712706 -33 44 C-33.5625 41.375 -33.5625 41.375 -33 38 C-29.59275612 34.85856947 -25.40804239 32.78926143 -21.38671875 30.53515625 C-11.90051953 25.10830176 -4.49772745 17.04030361 -1.1796875 6.359375 C-0.70989342 4.25522686 -0.34329812 2.12844833 0 0 Z " fill="#0B465F" transform="translate(157,117)"/>
<path d="M0 0 C3.39602835 1.45544072 5.89290577 2.92040075 8 6 C7.6094567 10.84273697 6.695903 13.79098737 3.125 17.125 C-2.61939392 21.52701977 -9.67782066 26 -17 26 C-19 23 -19 23 -19 20.625 C-17.27997676 16.10993899 -13.86590997 13.90790921 -9.671875 11.8671875 C-8.10882854 11.18650598 -6.53620451 10.52722459 -4.953125 9.89453125 C-2.82457973 9.05687625 -2.82457973 9.05687625 -1 7 C-0.59952556 4.67724823 -0.2602896 2.34260643 0 0 Z " fill="#8080CA" transform="translate(145,73)"/>
<path d="M0 0 C4.56710748 1.01381912 8.33932813 2.69505409 11.16796875 6.62109375 C13.86394944 11.58954858 15.13025884 16.88118524 16.38671875 22.36328125 C16.97672309 25.08531304 16.97672309 25.08531304 18 28 C16.35 29.32 14.7 30.64 13 32 C11.68 29.03 10.36 26.06 9 23 C8.01 23.99 7.02 24.98 6 26 C5.34 26.66 4.68 27.32 4 28 C1.94194229 18.6416621 0.46920411 9.59441508 0 0 Z " fill="#646BAC" transform="translate(49,105)"/>
<path d="M0 0 C0.31918373 7.85546636 -0.64290496 15.26940505 -2 23 C-3.98 22.67 -5.96 22.34 -8 22 C-8.23074219 22.53109375 -8.46148437 23.0621875 -8.69921875 23.609375 C-10.81938557 28.20167309 -12.67767276 31.11844851 -17 34 C-17 33.34 -17 32.68 -17 32 C-17.66 31.67 -18.32 31.34 -19 31 C-18.61908203 30.12601563 -18.61908203 30.12601563 -18.23046875 29.234375 C-16.21853897 24.44191306 -14.66836041 19.83441567 -13.5625 14.75 C-12.01797668 8.24630449 -9.86717857 5.00035714 -4.3125 1.125 C-2 0 -2 0 0 0 Z " fill="#626CAB" transform="translate(231,105)"/>
<path d="M0 0 C2.421875 0.17578125 2.421875 0.17578125 5 1 C6.265625 2.85546875 6.265625 2.85546875 7.25 5.1875 C10.27776382 11.25270101 15.0815243 14.04076215 21 17 C29.19750245 17.85853564 29.19750245 17.85853564 36.625 15 C37.40875 14.34 38.1925 13.68 39 13 C39.66 13 40.32 13 41 13 C41.495 14.485 41.495 14.485 42 16 C37.6696597 19.17915246 33.66985591 20.99522685 28.4375 22.3125 C27.46780273 22.58416992 27.46780273 22.58416992 26.47851562 22.86132812 C22.65198695 23.86175322 19.74965599 24.36066112 16 23 C8.46479959 17.71429661 3.06796827 10.57363973 -2 3 C-1 1 -1 1 0 0 Z " fill="#34477B" transform="translate(63,147)"/>
<path d="M0 0 C0.375 3.1875 0.375 3.1875 0 7 C-3.73687834 11.12014792 -7.85672344 12.97660871 -12.94140625 15.0859375 C-15.23510613 16.10439248 -17.10670085 17.35365291 -19 19 C-20 18 -20 18 -20.0546875 15.92578125 C-19.74627396 11.44037562 -19.29358299 8.50459576 -17 4.5625 C-12.16981354 0.43671573 -6.32426092 -2.24409259 0 0 Z " fill="#D3B0FA" transform="translate(145,73)"/>
<path d="M0 0 C2.05333975 2.73778634 1.98597798 4.28044043 1.8125 7.75 C0.01646381 13.96704835 -5.89219393 16.64251219 -11 20 C-12.83701016 21.41189561 -14.67043623 22.82846844 -16.5 24.25 C-23.09961475 29.04628654 -30.61969669 32.90597874 -39 32 C-36.61084685 28.05126076 -34.32434429 27.14293782 -30 25.75 C-16.58163722 20.82050158 -7.79826493 11.69739739 0 0 Z " fill="#0D405B" transform="translate(156,145)"/>
<path d="M0 0 C-0.33 0.66 -0.66 1.32 -1 2 C-0.34 2.33 0.32 2.66 1 3 C-5.40444689 9.543674 -12.74076458 13.31304145 -21 17 C-21.33 17 -21.66 17 -22 17 C-22.5625 14.375 -22.5625 14.375 -22 11 C-19.302614 8.51304837 -16.16919223 6.82228553 -13 5 C-12.1028125 4.42378906 -11.205625 3.84757813 -10.28125 3.25390625 C-3.39432794 -1.13144265 -3.39432794 -1.13144265 0 0 Z " fill="#05405A" transform="translate(146,144)"/>
<path d="M0 0 C6.51277641 -0.1252457 6.51277641 -0.1252457 8.93652344 0.49780273 C11.2814707 1.06850275 13.35365769 1.11311758 15.765625 1.09765625 C17.09980469 1.09282227 17.09980469 1.09282227 18.4609375 1.08789062 C19.38132812 1.07951172 20.30171875 1.07113281 21.25 1.0625 C22.65378906 1.05573242 22.65378906 1.05573242 24.0859375 1.04882812 C26.39069041 1.03706918 28.69531227 1.02063426 31 1 C27.31265242 3.45823172 24.30300029 4.01242616 20 5 C20 5.66 20 6.32 20 7 C21.65 7 23.3 7 25 7 C25 7.33 25 7.66 25 8 C4.0185067 8.61710274 4.0185067 8.61710274 -3 5 C-3.33 4.34 -3.66 3.68 -4 3 C-2.68 3 -1.36 3 0 3 C0 2.01 0 1.02 0 0 Z " fill="#BECFF6" transform="translate(103,188)"/>
<path d="M0 0 C3.375 2.0625 3.375 2.0625 6 5 C6.875 8.8125 6.875 8.8125 7 12 C-1.88156226 12.77605884 -1.88156226 12.77605884 -6.0625 9.875 C-8.14419243 6.78603703 -8.74277844 4.68684241 -9 1 C-5.85088521 -0.57455739 -3.47991184 -0.34799118 0 0 Z " fill="#0E4561" transform="translate(63,166)"/>
<path d="M0 0 C0.33 0.33 0.66 0.66 1 1 C0.79160133 4.68170992 0.48249299 7.26661066 -1.5625 10.375 C-5.08143527 12.72095685 -7.78135882 12.7958722 -12 13 C-12.66 12.67 -13.32 12.34 -14 12 C-13.82303398 7.48736659 -13.42983984 5.48101125 -10.375 2.0625 C-6.51823656 -0.29441099 -4.43946252 -0.52228971 0 0 Z " fill="#11455F" transform="translate(225,166)"/>
<path d="M0 0 C0.99 0.99 1.98 1.98 3 3 C2.154375 3.86625 1.30875 4.7325 0.4375 5.625 C-3.08319963 9.6796446 -5.3096768 14.27932436 -7.55102539 19.11181641 C-10.28829313 24.93820635 -10.28829313 24.93820635 -13 27 C-13.66 27 -14.32 27 -15 27 C-15.33 26.01 -15.66 25.02 -16 24 C-14.69791204 21.97951869 -13.36011609 19.98188345 -12 18 C-9.73121392 12.58012215 -8.96453578 6.76669264 -8 1 C-7.236875 1.20625 -6.47375 1.4125 -5.6875 1.625 C-2.78114056 2.33391203 -2.78114056 2.33391203 0 0 Z " fill="#7378B8" transform="translate(119,135)"/>
<path d="M0 0 C2.3922089 1.82933621 2.96410255 2.81218868 3.5390625 5.8203125 C3.73561556 13.37867099 2.82796217 17.64208958 -2.17578125 23.390625 C-4 25 -4 25 -7 26 C-8.65 24.35 -10.3 22.7 -12 21 C-11.37351563 20.46890625 -10.74703125 19.9378125 -10.1015625 19.390625 C-9.28429687 18.68421875 -8.46703125 17.9778125 -7.625 17.25 C-6.81289062 16.55390625 -6.00078125 15.8578125 -5.1640625 15.140625 C-1.73923227 11.7528868 -0.79332023 8.9909626 -0.375 4.25 C-0.30023438 3.45078125 -0.22546875 2.6515625 -0.1484375 1.828125 C-0.09945312 1.22484375 -0.05046875 0.6215625 0 0 Z " fill="#09405D" transform="translate(152,79)"/>
<path d="M0 0 C0 3 0 3 -1.51171875 4.796875 C-7.77307223 10.41747956 -14.47770847 14.27662758 -22 18 C-22.66 18.33 -23.32 18.66 -24 19 C-24 16.36 -24 13.72 -24 11 C-17.61006403 7.67779878 -11.13905526 4.73188333 -4.46875 2.015625 C-2.05329296 1.05718529 -2.05329296 1.05718529 0 0 Z " fill="#4C91BB" transform="translate(148,136)"/>
<path d="M0 0 C0.66964286 7.76785714 0.66964286 7.76785714 -2.125 11.4375 C-5.25017659 14.22298348 -6.88047733 14.80839429 -11 15 C-12.46341463 7.92682927 -12.46341463 7.92682927 -10.3125 3.625 C-6.97307998 -0.165693 -4.94100325 -1.76464402 0 0 Z " fill="#3D5288" transform="translate(174,43)"/>
<path d="M0 0 C3.76751033 0.79697334 6.43703294 1.53807831 9.4375 4 C11.68392319 8.31313252 11.33334463 12.2313199 11 17 C9.53775201 16.57576756 8.08026588 16.13509755 6.625 15.6875 C5.81289062 15.44386719 5.00078125 15.20023438 4.1640625 14.94921875 C2 14 2 14 0 11 C-0.1953125 8.30078125 -0.1953125 8.30078125 -0.125 5.3125 C-0.10695313 4.31863281 -0.08890625 3.32476562 -0.0703125 2.30078125 C-0.04710938 1.54152344 -0.02390625 0.78226563 0 0 Z " fill="#7F82CC" transform="translate(107,41)"/>
<path d="M0 0 C0.66 1.32 1.32 2.64 2 4 C-6.63528927 15.81118593 -6.63528927 15.81118593 -12 19 C-13.32 19 -14.64 19 -16 19 C-16 18.34 -16 17.68 -16 17 C-18.475 16.01 -18.475 16.01 -21 15 C-20.4328125 14.72800781 -19.865625 14.45601562 -19.28125 14.17578125 C-13.30423012 11.0951597 -7.81848295 7.64471392 -4 2 C-3.67 2.66 -3.34 3.32 -3 4 C-2.34 3.67 -1.68 3.34 -1 3 C-0.67 2.01 -0.34 1.02 0 0 Z " fill="#2A4574" transform="translate(215,150)"/>
<path d="M0 0 C9.68731919 -0.62054002 9.68731919 -0.62054002 14.4375 1.625 C19.02742244 5.87907446 21.83737672 10.07102154 22.09765625 16.359375 C22.08605469 17.14828125 22.07445313 17.9371875 22.0625 18.75 C22.05347656 19.54921875 22.04445313 20.3484375 22.03515625 21.171875 C22.02355469 21.77515625 22.01195313 22.3784375 22 23 C20 20 20 20 18.7734375 17.73046875 C14.7113445 10.34381361 10.41354104 5.73389112 2.5 2.625 C1.675 2.41875 0.85 2.2125 0 2 C0 1.34 0 0.68 0 0 Z " fill="#08405F" transform="translate(66,56)"/>
<path d="M0 0 C0.33 0.66 0.66 1.32 1 2 C-0.07518118 4.44332726 -1.19808566 6.76754523 -2.4375 9.125 C-2.77587891 9.78371094 -3.11425781 10.44242188 -3.46289062 11.12109375 C-4.30149926 12.75106547 -5.14984811 14.37601909 -6 16 C-6.99 16 -7.98 16 -9 16 C-11.15028304 16.94978897 -11.15028304 16.94978897 -13 18 C-13 17.01 -13 16.02 -13 15 C-14.65 14.67 -16.3 14.34 -18 14 C-17.236875 13.4225 -16.47375 12.845 -15.6875 12.25 C-12.99108421 10.16642802 -12.99108421 10.16642802 -11.3125 7.75 C-10.879375 7.1725 -10.44625 6.595 -10 6 C-9.34 6 -8.68 6 -8 6 C-7.79375 5.38125 -7.5875 4.7625 -7.375 4.125 C-5.45224112 1.15346355 -3.33405473 0.86975341 0 0 Z " fill="#3F5088" transform="translate(224,137)"/>
<path d="M0 0 C0.33 0.99 0.66 1.98 1 3 C-3.3303403 6.17915246 -7.33014409 7.99522685 -12.5625 9.3125 C-13.20896484 9.49361328 -13.85542969 9.67472656 -14.52148438 9.86132812 C-18.34153191 10.86005876 -21.23502806 11.28560017 -25 10 C-27.2297702 8.52477243 -29.00870183 6.80606113 -31 5 C-28.66666667 5 -26.33333333 5 -24 5 C-24 4.34 -24 3.68 -24 3 C-23.46117188 3.15855469 -22.92234375 3.31710938 -22.3671875 3.48046875 C-17.24209305 4.60528321 -10.84178667 5.24192586 -5.953125 3.10546875 C-1.51987633 0 -1.51987633 0 0 0 Z " fill="#294172" transform="translate(104,160)"/>
<path d="M0 0 C4.35943716 -0.43594372 6.51384391 -0.29352821 10.3125 2 C13.71890163 5.15205697 14.24204706 8.52807768 15 13 C11.34092143 13.34848367 9.19068728 13.08599622 5.8125 11.5625 C2.0903032 8.17116514 1.16857673 4.79731501 0 0 Z " fill="#395182" transform="translate(68,113)"/>
<path d="M0 0 C-0.28001138 4.01349645 -0.75763789 5.72035142 -3.4375 8.8125 C-7.46616485 12.25160414 -9.75219332 12.09718161 -15 12 C-12.88949897 3.81537406 -12.88949897 3.81537406 -9.75 0.9375 C-6.3800609 -0.21134288 -3.53568888 -0.2079817 0 0 Z " fill="#0E4D6A" transform="translate(212,114)"/>
<path d="M0 0 C2.11180592 2.57089417 3.66306057 4.63060567 4 8 C3.34 8.66 2.68 9.32 2 10 C0.12095724 14.64234094 -0.48895613 19.05990924 -1 24 C-2.32 23.34 -3.64 22.68 -5 22 C-5.33 22.99 -5.66 23.98 -6 25 C-7.38960666 20.41429804 -6.30195435 17.51854746 -5 13 C-5.02621276 11.6238299 -5.08925041 10.24790869 -5.1875 8.875 C-5 5 -5 5 -2.5 2 C-1.675 1.34 -0.85 0.68 0 0 Z " fill="#41578F" transform="translate(165,121)"/>
<path d="M0 0 C0.66 0.33 1.32 0.66 2 1 C-2.75 4 -2.75 4 -5 4 C-4.67 4.99 -4.34 5.98 -4 7 C-7.75 8.125 -7.75 8.125 -10 7 C-9.67 7.99 -9.34 8.98 -9 10 C-9.33 10.33 -9.66 10.66 -10 11 C-9.34 11.66 -8.68 12.32 -8 13 C-10.10388569 13.05402274 -12.20816714 13.09280256 -14.3125 13.125 C-16.07013672 13.15980469 -16.07013672 13.15980469 -17.86328125 13.1953125 C-21 13 -21 13 -24 11 C-23.195625 10.38125 -22.39125 9.7625 -21.5625 9.125 C-18.96125481 7.25835959 -18.96125481 7.25835959 -18 5 C-15.74889882 4.41756761 -13.47207173 3.93291575 -11.1875 3.5 C-7.069364 2.71478029 -3.72293252 1.87448351 0 0 Z " fill="#C1A1EF" transform="translate(134,172)"/>
<path d="M0 0 C0.33 0 0.66 0 1 0 C1.75783446 8.71509623 -1.91439325 16.09810513 -7 23 C-8.32 22.34 -9.64 21.68 -11 21 C-14.465 23.475 -14.465 23.475 -18 26 C-16.49797205 22.50321535 -14.44823728 20.22193179 -11.8125 17.5 C-7.47235876 12.80227039 -4.36153691 7.87745442 -1.3125 2.2734375 C-0.6628125 1.14808594 -0.6628125 1.14808594 0 0 Z " fill="#F4F7F6" transform="translate(160,127)"/>
<path d="M0 0 C0 3.3 0 6.6 0 10 C-0.33 8.68 -0.66 7.36 -1 6 C-4.87837197 9.44744175 -6.97756637 12.54896155 -9.0078125 17.328125 C-10 19 -10 19 -13 20 C-14.15383643 16.5384907 -14.00683451 15.02014381 -12.8125 11.5 C-10.18298393 6.4223138 -6.48469527 0 0 0 Z " fill="#7E82C9" transform="translate(231,105)"/>
<path d="M0 0 C2.94151404 3.62032497 5.75004542 7.32493396 8.5390625 11.0625 C10.31206484 13.4138614 12.14304811 15.71452075 14 18 C9.23786523 18 6.04730398 16.87275332 2.375 13.8125 C-0.27346966 10.67615435 -2.0827954 7.62138647 -4 4 C-2.68 2.68 -1.36 1.36 0 0 Z " fill="#555F9C" transform="translate(66,133)"/>
<path d="M0 0 C4.23166058 0.47018451 8.10319636 1.28654747 12.1875 2.5 C18.08626296 4.1795089 23.89229712 4.69088415 30 5 C28.02 5.99 28.02 5.99 26 7 C26 7.66 26 8.32 26 9 C18.41051582 11.02386245 12.24316375 8.30171618 5.515625 4.65234375 C3.61484553 3.49637325 1.7621271 2.35820112 0 1 C0 0.67 0 0.34 0 0 Z " fill="#1B476D" transform="translate(95,180)"/>
<path d="M0 0 C5.83064828 3.43858745 5.83064828 3.43858745 6.5703125 5.890625 C8.50648585 14.12617925 8.50648585 14.12617925 7 18 C5.68927566 19.68450505 4.35779296 21.35319891 3 23 C-0.44419134 7.25512528 -0.44419134 7.25512528 0 0 Z " fill="#5E69A6" transform="translate(50,110)"/>
<path d="M0 0 C1.5625 1.125 1.5625 1.125 3 3 C3 6.89511562 2.42572075 8.52562545 -0.1875 11.4375 C-3 13 -3 13 -6.125 12.9375 C-10.35559921 11.55795678 -10.35559921 11.55795678 -12 9 C-12.1875 6.3125 -12.1875 6.3125 -12 4 C-11.01 4.495 -11.01 4.495 -10 5 C-8.62657169 5.0689472 -7.24997898 5.08467708 -5.875 5.0625 C-4.59625 5.041875 -3.3175 5.02125 -2 5 C-1.34 3.35 -0.68 1.7 0 0 Z " fill="#7D7FCD" transform="translate(145,38)"/>
<path d="M0 0 C0.33 0 0.66 0 1 0 C1.42372442 3.08016777 1.80902487 6.16397198 2.1875 9.25 C2.30802734 10.12269531 2.42855469 10.99539062 2.55273438 11.89453125 C3.32435657 18.41598332 3.32435657 18.41598332 1.55078125 21.609375 C1.03902344 22.06828125 0.52726563 22.5271875 0 23 C-0.66 22.67 -1.32 22.34 -2 22 C-2.8515625 19.27734375 -2.8515625 19.27734375 -3.625 15.9375 C-3.88539063 14.83277344 -4.14578125 13.72804687 -4.4140625 12.58984375 C-4.60742188 11.73519531 -4.80078125 10.88054687 -5 10 C-5.66 10 -6.32 10 -7 10 C-7.33 9.01 -7.66 8.02 -8 7 C-7.01 6.01 -6.02 5.02 -5 4 C-5 5.32 -5 6.64 -5 8 C-4.525625 7.505 -4.05125 7.01 -3.5625 6.5 C-2 5 -2 5 -1 5 C-0.67 3.35 -0.34 1.7 0 0 Z " fill="#244471" transform="translate(164,137)"/>
<path d="M0 0 C0 0.99 0 1.98 0 3 C-0.66 3 -1.32 3 -2 3 C-2 3.66 -2 4.32 -2 5 C-1.01 5.33 -0.02 5.66 1 6 C-5.67216405 9.75510682 -10.49118208 10.44219467 -18 9 C-18.33 8.01 -18.66 7.02 -19 6 C-17.25014646 5.52029877 -15.50011109 5.04126076 -13.75 4.5625 C-12.77546875 4.29566406 -11.8009375 4.02882812 -10.796875 3.75390625 C-9.13046786 3.30472108 -7.4596933 2.87063079 -5.78125 2.46875 C-3.68275156 1.91651357 -1.90796346 1.02212328 0 0 Z " fill="#A8C9F8" transform="translate(141,186)"/>
<path d="M0 0 C4.06691197 0.62567876 6.832409 2.42633231 10 5 C12.51378552 8.58683427 14.11859132 11.57690416 13.75 16 C13.5025 16.66 13.255 17.32 13 18 C7.95752474 15.68318704 7.05003771 12.99139616 5 8 C3.67607028 6.98758315 2.34400833 5.98560611 1 5 C0.25 2.3125 0.25 2.3125 0 0 Z " fill="#7D7EC8" transform="translate(49,105)"/>
<path d="M0 0 C0.66 0.66 1.32 1.32 2 2 C0.125 6.875 0.125 6.875 -1 8 C-2.8125 8.1328125 -2.8125 8.1328125 -5 8.125 C-5.721875 8.12757812 -6.44375 8.13015625 -7.1875 8.1328125 C-9 8 -9 8 -10 7 C-10.66 7.99 -11.32 8.98 -12 10 C-12.40060526 6.49470398 -12.15413141 5.2260594 -10.125 2.25 C-6.61658166 -1.46479588 -4.86312308 -1.11446571 0 0 Z " fill="#CCAFFA" transform="translate(144,36)"/>
<path d="M0 0 C-2.34692596 2.66138336 -4.64821187 3.8854554 -7.875 5.3125 C-13.63319318 8.10765791 -16.61268464 10.96111874 -19.3125 16.875 C-19.539375 17.57625 -19.76625 18.2775 -20 19 C-20.33 19 -20.66 19 -21 19 C-20.7321679 12.97377769 -20.14253112 8.68760101 -16 4 C-10.61028708 -0.01586453 -6.62357183 -0.54069974 0 0 Z " fill="#0B405B" transform="translate(213,56)"/>
<path d="M0 0 C0.33 0.66 0.66 1.32 1 2 C0.319375 2.721875 -0.36125 3.44375 -1.0625 4.1875 C-3.31737069 6.8205652 -3.31737069 6.8205652 -2.75 9.8125 C-2.5025 10.534375 -2.255 11.25625 -2 12 C-7.2062847 14.69955503 -12.43187272 17.04396293 -17.8984375 19.16796875 C-20.00956745 19.96871584 -20.00956745 19.96871584 -22 21 C-20.29462888 16.65905534 -17.40880885 14.06777031 -13.140625 12.17578125 C-12.47546875 11.89089844 -11.8103125 11.60601562 -11.125 11.3125 C-5.95505775 8.88478947 -3.15486634 4.61399202 0 0 Z " fill="#B7D4F6" transform="translate(147,126)"/>
<path d="M0 0 C0 0.66 0 1.32 0 2 C0.99 2.33 1.98 2.66 3 3 C2.01 3.33 1.02 3.66 0 4 C1.32 4.66 2.64 5.32 4 6 C-0.53718647 9.02479098 -4.78412859 7.95941576 -10 7 C-13.1875 5.4375 -13.1875 5.4375 -15 4 C-12.32189637 3.10729879 -9.63761894 2.2606585 -6.9375 1.4375 C-6.05964844 1.16808594 -5.18179688 0.89867187 -4.27734375 0.62109375 C-2 0 -2 0 0 0 Z " fill="#07405F" transform="translate(97,167)"/>
<path d="M0 0 C0.66 0.33 1.32 0.66 2 1 C1.1875 3.4375 1.1875 3.4375 0 6 C-0.99 6.33 -1.98 6.66 -3 7 C-2.67 7.99 -2.34 8.98 -2 10 C-2.66 10 -3.32 10 -4 10 C-4.33 11.32 -4.66 12.64 -5 14 C-7.8125 14.625 -7.8125 14.625 -11 15 C-11.99 14.34 -12.98 13.68 -14 13 C-13.67 11.68 -13.34 10.36 -13 9 C-11.35 8.67 -9.7 8.34 -8 8 C-8 7.34 -8 6.68 -8 6 C-7.05125 5.566875 -6.1025 5.13375 -5.125 4.6875 C-1.79958063 3.20697799 -1.79958063 3.20697799 0 0 Z " fill="#9E96D6" transform="translate(137,170)"/>
<path d="M0 0 C0.66 0 1.32 0 2 0 C1.88637738 1.4800841 1.75877092 2.95910074 1.625 4.4375 C1.55539063 5.26121094 1.48578125 6.08492188 1.4140625 6.93359375 C1.27742187 7.61550781 1.14078125 8.29742187 1 9 C0.01 9.495 0.01 9.495 -1 10 C-1 9.34 -1 8.68 -1 8 C-4.52175209 10.34783473 -5.16905071 12.26181186 -7 16 C-8.5 17.875 -8.5 17.875 -10 19 C-10.99 19 -11.98 19 -13 19 C-12.34 17.02 -11.68 15.04 -11 13 C-9.68 13 -8.36 13 -7 13 C-6.8865625 12.42636719 -6.773125 11.85273437 -6.65625 11.26171875 C-5.93511141 8.77636613 -4.90056919 6.98256797 -3.5 4.8125 C-3.0565625 4.11769531 -2.613125 3.42289062 -2.15625 2.70703125 C-1 1 -1 1 0 0 Z " fill="#666DAD" transform="translate(228,111)"/>
<path d="M0 0 C2.31 1.65 4.62 3.3 7 5 C4.9375 7.5625 4.9375 7.5625 2 10 C-1.8125 9.8125 -1.8125 9.8125 -5 9 C-5.33 7.02 -5.66 5.04 -6 3 C-4.02 2.01 -2.04 1.02 0 0 Z " fill="#394D8A" transform="translate(139,100)"/>
<path d="M0 0 C5.19209404 -0.21192221 9.126739 0.4087311 14 2 C13.01 2.33 12.02 2.66 11 3 C10.26676204 5.01508358 10.26676204 5.01508358 10 7 C4.34605369 7.34615998 0.96993194 6.43425238 -4 4 C-2.68 3.67 -1.36 3.34 0 3 C0 2.01 0 1.02 0 0 Z " fill="#C5C5F9" transform="translate(103,188)"/>
<path d="M0 0 C7.07942187 -0.32927544 11.2589641 2.0295846 17.03515625 5.78125 C18.9746601 6.98428221 20.94439291 8.01111106 23 9 C23 9.33 23 9.66 23 10 C16.16464565 10.6102995 12.38077377 9.23542059 7 5 C6 4 5 3 4 2 C1.90010348 0.82425289 1.90010348 0.82425289 0 0 Z " fill="#42538C" transform="translate(71,150)"/>
<path d="M0 0 C6.93 0.495 6.93 0.495 14 1 C13.67 2.32 13.34 3.64 13 5 C13.33 5.99 13.66 6.98 14 8 C10.7 8 7.4 8 4 8 C4 6.68 4 5.36 4 4 C4.66 4 5.32 4 6 4 C6 3.34 6 2.68 6 2 C3.03 1.505 3.03 1.505 0 1 C0 0.67 0 0.34 0 0 Z " fill="#4586AF" transform="translate(110,196)"/>
<path d="M0 0 C5.17252801 1.88996216 7.78374443 3.3542975 11 8 C11.66 8.66 12.32 9.32 13 10 C9.8125 10.8125 9.8125 10.8125 6 11 C2.48960863 8.48167576 1.2194612 6.89472645 0.1875 2.6875 C0.125625 1.800625 0.06375 0.91375 0 0 Z " fill="#2D457A" transform="translate(54,167)"/>
<path d="M0 0 C7.617737 2.87461774 7.617737 2.87461774 10 7 C10.29296875 9.578125 10.29296875 9.578125 10.1875 12.25 C10.16042969 13.14203125 10.13335937 14.0340625 10.10546875 14.953125 C10.07066406 15.62859375 10.03585938 16.3040625 10 17 C9.34 17 8.68 17 8 17 C7.79375 16.195625 7.5875 15.39125 7.375 14.5625 C5.82691578 10.55155451 3.72168115 7.44102516 1.2421875 3.953125 C0 2 0 2 0 0 Z " fill="#124964" transform="translate(108,41)"/>
<path d="M0 0 C3.76300241 1.48769863 4.3966355 3.76802609 5.98828125 7.34765625 C6.21902344 7.91355469 6.44976562 8.47945312 6.6875 9.0625 C5.6975 9.3925 4.7075 9.7225 3.6875 10.0625 C3.0275 10.7225 2.3675 11.3825 1.6875 12.0625 C-0.2925 9.0925 -2.2725 6.1225 -4.3125 3.0625 C-2.81934932 0.07619863 -2.81934932 0.07619863 0 0 Z " fill="#3D4C84" transform="translate(65.3125,146.9375)"/>
<path d="M0 0 C-0.57823096 4.06225548 -1.89117737 6.84762346 -4.0625 10.3125 C-4.61035156 11.19550781 -5.15820312 12.07851562 -5.72265625 12.98828125 C-6.14417969 13.65214844 -6.56570312 14.31601563 -7 15 C-7.66 13.68 -8.32 12.36 -9 11 C-8.34 10.01 -7.68 9.02 -7 8 C-7.66 7.67 -8.32 7.34 -9 7 C-3.65789474 0 -3.65789474 0 0 0 Z " fill="#7780C1" transform="translate(156,157)"/>
<path d="M0 0 C0 3 0 3 -2.625 5.8125 C-7.12250895 9.51741516 -12.33836247 11.47792733 -17.6953125 13.60546875 C-20.66613163 14.85911228 -23.28888255 16.26590789 -26 18 C-25.51171875 15.71484375 -25.51171875 15.71484375 -24 13 C-21.41562023 11.4735983 -18.63811151 10.55234118 -15.8125 9.5625 C-9.50644967 7.18562944 -4.721262 4.963378 0 0 Z " fill="#F2F2F8" transform="translate(141,111)"/>
<path d="M0 0 C0.66 0.33 1.32 0.66 2 1 C-1.0206017 3.08565356 -3.78246727 4.89993494 -7.125 6.4375 C-10.49521657 8.26913944 -11.90440648 9.79084841 -14 13 C-14.69306366 16.56910296 -14.69306366 16.56910296 -14.75 20.3125 C-14.80671875 21.56675781 -14.8634375 22.82101563 -14.921875 24.11328125 C-14.94765625 25.06589844 -14.9734375 26.01851562 -15 27 C-15.33 27 -15.66 27 -16 27 C-16.06058594 26.24074219 -16.12117188 25.48148438 -16.18359375 24.69921875 C-16.26738281 23.70535156 -16.35117188 22.71148437 -16.4375 21.6875 C-16.51871094 20.70136719 -16.59992188 19.71523437 -16.68359375 18.69921875 C-16.91812559 15.90624401 -16.91812559 15.90624401 -18 13 C-13.54696797 6.25683722 -7.52747039 2.79462972 0 0 Z " fill="#DEE8ED" transform="translate(139,134)"/>
<path d="M0 0 C0.8971875 0.309375 0.8971875 0.309375 1.8125 0.625 C1.69887738 2.1050841 1.57127092 3.58410074 1.4375 5.0625 C1.36789063 5.88621094 1.29828125 6.70992188 1.2265625 7.55859375 C1.08992187 8.24050781 0.95328125 8.92242187 0.8125 9.625 C-0.1775 10.12 -0.1775 10.12 -1.1875 10.625 C-1.5175 9.965 -1.8475 9.305 -2.1875 8.625 C-3.8375 8.955 -5.4875 9.285 -7.1875 9.625 C-4.9899911 -0.85542705 -4.9899911 -0.85542705 0 0 Z " fill="#A2CBF9" transform="translate(155.1875,116.375)"/>
<path d="M0 0 C6.625 -0.25 6.625 -0.25 10 2 C9.34 3.98 8.68 5.96 8 8 C7.67 7.01 7.34 6.02 7 5 C6.34 5 5.68 5 5 5 C5.66 6.65 6.32 8.3 7 10 C6.01 10 5.02 10 4 10 C3.32845067 8.71086513 2.66291141 7.41859796 2 6.125 C1.62875 5.40570313 1.2575 4.68640625 0.875 3.9453125 C0 2 0 2 0 0 Z " fill="#4C6094" transform="translate(68,113)"/>
<path d="M0 0 C2 1 2 1 2.8515625 3.06640625 C3.10679688 3.89011719 3.36203125 4.71382812 3.625 5.5625 C3.88539062 6.38878906 4.14578125 7.21507812 4.4140625 8.06640625 C4.60742188 8.70449219 4.80078125 9.34257812 5 10 C4.01 10.495 4.01 10.495 3 11 C2.34 10.67 1.68 10.34 1 10 C0.67 10.66 0.34 11.32 0 12 C-0.66 12 -1.32 12 -2 12 C-3.35384615 4.61538462 -3.35384615 4.61538462 -1.5625 1.5 C-1.046875 1.005 -0.53125 0.51 0 0 Z " fill="#515C9A" transform="translate(57,127)"/>
<path d="M0 0 C2.0625 0.4375 2.0625 0.4375 4 1 C2.95125002 3.62187494 2.35068687 4.79371361 -0.125 6.25 C-0.74375 6.4975 -1.3625 6.745 -2 7 C-2 9.31 -2 11.62 -2 14 C-1.34 14.33 -0.68 14.66 0 15 C-1.32 15 -2.64 15 -4 15 C-5.475 7.87083333 -5.475 7.87083333 -3.125 3.5625 C-1 1 -1 1 0 0 Z " fill="#5866A8" transform="translate(167,43)"/>
<path d="M0 0 C0.66 0.99 1.32 1.98 2 3 C4.56282742 3.72965366 4.56282742 3.72965366 7 4 C3.37464179 7.17218843 -0.51150278 8.42902597 -5 10 C-5.3125 7.25 -5.3125 7.25 -5 4 C-2.5 1.625 -2.5 1.625 0 0 Z " fill="#0B4562" transform="translate(129,151)"/>
<path d="M0 0 C5.75 1.625 5.75 1.625 8 5 C5.03 7.475 5.03 7.475 2 10 C1.01 9.34 0.02 8.68 -1 8 C-0.67 5.36 -0.34 2.72 0 0 Z " fill="#124C67" transform="translate(157,117)"/>
<path d="M0 0 C-2.22637325 3.51532618 -3.96683409 4.92448909 -8 6 C-10.69193789 6.15010806 -13.29938583 6.09154624 -16 6 C-14.62745895 3.25491791 -12.9584998 2.71082312 -10.25 1.3125 C-9.38890625 0.85488281 -8.5278125 0.39726562 -7.640625 -0.07421875 C-4.61788209 -1.13396737 -3.03022676 -0.89925794 0 0 Z " fill="#41548E" transform="translate(202,154)"/>
<path d="M0 0 C-2.83332467 3.04516202 -5.65500311 5.16868601 -9.25 7.25 C-10.58804688 8.03117188 -10.58804688 8.03117188 -11.953125 8.828125 C-12.96632812 9.40820312 -12.96632812 9.40820312 -14 10 C-13.37599755 5.68277372 -12.30316705 3.68510547 -8.765625 0.9375 C-5.86876421 -0.60065617 -3.1823357 -0.31823357 0 0 Z " fill="#397FA7" transform="translate(225,166)"/>
<path d="M0 0 C0.33 1.32 0.66 2.64 1 4 C0.071875 4.12375 0.071875 4.12375 -0.875 4.25 C-3.1765144 4.79994195 -3.1765144 4.79994195 -4.125 7 C-4.41375 7.66 -4.7025 8.32 -5 9 C-5.99 9.495 -5.99 9.495 -7 10 C-8.32 9.01 -9.64 8.02 -11 7 C-9.73742767 5.82439821 -8.46462916 4.65977135 -7.1875 3.5 C-6.12595703 2.52546875 -6.12595703 2.52546875 -5.04296875 1.53125 C-3 0 -3 0 0 0 Z " fill="#4F5D97" transform="translate(209,145)"/>
<path d="M0 0 C0.33 0 0.66 0 1 0 C1.08159574 4.16138263 0.98248524 7.9472484 0 12 C-2.31 11.67 -4.62 11.34 -7 11 C-6.75 8.125 -6.75 8.125 -6 5 C-3.9375 3.625 -3.9375 3.625 -2 3 C-1.67 3.33 -1.34 3.66 -1 4 C-0.67 2.68 -0.34 1.36 0 0 Z " fill="#5E68A1" transform="translate(229,116)"/>
<path d="M0 0 C0.33 0.66 0.66 1.32 1 2 C1.66 2 2.32 2 3 2 C2.67 3.65 2.34 5.3 2 7 C0.35 7.33 -1.3 7.66 -3 8 C-3 7.34 -3 6.68 -3 6 C-5.475 5.01 -5.475 5.01 -8 4 C-5.33333333 2.66666667 -2.66666667 1.33333333 0 0 Z " fill="#1B3B67" transform="translate(202,161)"/>
<path d="M0 0 C0.33 0 0.66 0 1 0 C1.10815225 1.76949095 1.18566083 3.54087487 1.25 5.3125 C1.29640625 6.29863281 1.3428125 7.28476563 1.390625 8.30078125 C1 11 1 11 -1.015625 12.85546875 C-1.67046875 13.23316406 -2.3253125 13.61085937 -3 14 C-3 13.34 -3 12.68 -3 12 C-3.66 12 -4.32 12 -5 12 C-5 11.34 -5 10.68 -5 10 C-5.66 10 -6.32 10 -7 10 C-7.33 9.01 -7.66 8.02 -8 7 C-7.01 6.01 -6.02 5.02 -5 4 C-5 5.32 -5 6.64 -5 8 C-4.525625 7.505 -4.05125 7.01 -3.5625 6.5 C-2 5 -2 5 -1 5 C-0.67 3.35 -0.34 1.7 0 0 Z " fill="#2B4C7B" transform="translate(164,137)"/>
<path d="M0 0 C0.66 0.33 1.32 0.66 2 1 C2.44921875 3.1796875 2.44921875 3.1796875 2.6875 5.875 C2.77386719 6.75929687 2.86023438 7.64359375 2.94921875 8.5546875 C3 11 3 11 2 14 C0.68 13.67 -0.64 13.34 -2 13 C-2.19294408 8.17639811 -1.75747614 4.50353262 0 0 Z " fill="#05425F" transform="translate(167,128)"/>
<path d="M0 0 C5.28 0 10.56 0 16 0 C15.01 0.33 14.02 0.66 13 1 C13 1.99 13 2.98 13 4 C12.38125 4.12375 11.7625 4.2475 11.125 4.375 C8.80879168 4.87197356 8.80879168 4.87197356 7 7 C5.68 6.34 4.36 5.68 3 5 C3.99 4.01 4.98 3.02 6 2 C3.03 1.505 3.03 1.505 0 1 C0 0.67 0 0.34 0 0 Z " fill="#5290BC" transform="translate(117,196)"/>
<path d="M0 0 C0.99 1.32 1.98 2.64 3 4 C-1 11.71428571 -1 11.71428571 -5 13 C-5.33 12.01 -5.66 11.02 -6 10 C-4.73779907 7.95436401 -3.39712274 5.95597184 -2 4 C-1.30570621 2.6808418 -0.62469505 1.35350594 0 0 Z " fill="#50609C" transform="translate(109,149)"/>
<path d="M0 0 C0.33 1.32 0.66 2.64 1 4 C-2.61186839 6.74501997 -6.30395263 9.37012014 -10 12 C-9.9158797 9.13990965 -9.43181261 7.45351173 -7.4453125 5.3671875 C-5.06011926 3.31849455 -2.81995319 1.40997659 0 0 Z " fill="#8685D3" transform="translate(122,117)"/>
<path d="M0 0 C0.33 0.99 0.66 1.98 1 3 C-1.83541482 5.75202027 -3.15423643 7 -7.1875 7 C-10 6 -10 6 -11.17578125 3.9375 C-11.44777344 3.298125 -11.71976563 2.65875 -12 2 C-11.30132812 2.02320313 -10.60265625 2.04640625 -9.8828125 2.0703125 C-8.51769531 2.09738281 -8.51769531 2.09738281 -7.125 2.125 C-6.22007812 2.14820313 -5.31515625 2.17140625 -4.3828125 2.1953125 C-1.81193006 2.24324836 -1.81193006 2.24324836 0 0 Z " fill="#606EAB" transform="translate(146,44)"/>
<path d="M0 0 C0.99 1.485 0.99 1.485 2 3 C4.56282742 3.72965366 4.56282742 3.72965366 7 4 C7.66 6.31 8.32 8.62 9 11 C8.34 11.66 7.68 12.32 7 13 C6.34 12.01 5.68 11.02 5 10 C4.34 10 3.68 10 3 10 C0.96564469 6.27034861 0 4.33094958 0 0 Z " fill="#7075B8" transform="translate(56,117)"/>
<path d="M0 0 C0.66 0.33 1.32 0.66 2 1 C-2.75 4 -2.75 4 -5 4 C-4.67 4.99 -4.34 5.98 -4 7 C-8.62 7 -13.24 7 -18 7 C-18 6.34 -18 5.68 -18 5 C-17.03578125 4.80664062 -16.0715625 4.61328125 -15.078125 4.4140625 C-13.81484375 4.15367187 -12.5515625 3.89328125 -11.25 3.625 C-9.99703125 3.36976563 -8.7440625 3.11453125 -7.453125 2.8515625 C-4.10898114 2.16122045 -4.10898114 2.16122045 -1.671875 0.8359375 C-1.12015625 0.56007812 -0.5684375 0.28421875 0 0 Z " fill="#C6C7DD" transform="translate(134,172)"/>
<path d="M0 0 C0.33 0.99 0.66 1.98 1 3 C0.195625 3.12375 -0.60875 3.2475 -1.4375 3.375 C-2.7059375 3.684375 -2.7059375 3.684375 -4 4 C-4.33 4.66 -4.66 5.32 -5 6 C-5.66 5.67 -6.32 5.34 -7 5 C-7 5.66 -7 6.32 -7 7 C-6.01 7.33 -5.02 7.66 -4 8 C-4.99 8.33 -5.98 8.66 -7 9 C-7.66 8.67 -8.32 8.34 -9 8 C-9 6.35 -9 4.7 -9 3 C-3.375 0 -3.375 0 0 0 Z " fill="#0D4563" transform="translate(135,131)"/>
<path d="M0 0 C2.15377564 2.62198774 3.40072174 4.64404172 4 8 C3.01 8.33 2.02 8.66 1 9 C0.67 7.35 0.34 5.7 0 4 C-0.33 4 -0.66 4 -1 4 C-1.33 6.97 -1.66 9.94 -2 13 C-2.66 12.67 -3.32 12.34 -4 12 C-4.9375 8.75 -4.9375 8.75 -5 5 C-2.5625 2.0625 -2.5625 2.0625 0 0 Z " fill="#4E6798" transform="translate(165,121)"/>
<path d="M0 0 C0.33 0.99 0.66 1.98 1 3 C-3.38512875 6.31558515 -6.37458159 7.54996653 -12 8 C-12 7.34 -12 6.68 -12 6 C-10.68 6 -9.36 6 -8 6 C-8 5.34 -8 4.68 -8 4 C-2.58823529 0 -2.58823529 0 0 0 Z " fill="#304C83" transform="translate(104,160)"/>
<path d="M0 0 C1.125 1.5625 1.125 1.5625 2 4 C1.125 7.75 1.125 7.75 0 11 C-1.32 11 -2.64 11 -4 11 C-4.65234375 9.234375 -4.65234375 9.234375 -5 7 C-4.00390625 5.078125 -4.00390625 5.078125 -2.5625 3.25 C-2.08941406 2.63640625 -1.61632812 2.0228125 -1.12890625 1.390625 C-0.75636719 0.93171875 -0.38382813 0.4728125 0 0 Z " fill="#023B54" transform="translate(156,145)"/>
<path d="M0 0 C1.65 0.99 3.3 1.98 5 3 C4.38461538 10.50769231 4.38461538 10.50769231 2.4375 13 C1.963125 13.33 1.48875 13.66 1 14 C0.04738513 9.23692563 -0.08333357 4.8333472 0 0 Z " fill="#656EB3" transform="translate(50,110)"/>
<path d="M0 0 C2.31 0.66 4.62 1.32 7 2 C6.01 3.32 5.02 4.64 4 6 C1.69 5.67 -0.62 5.34 -3 5 C-1.125 1.125 -1.125 1.125 0 0 Z " fill="#5864A3" transform="translate(135,108)"/>
<path d="M0 0 C1.39346667 2.78693333 0.87916585 4.02436173 0 7 C-1.26660533 9.04291182 -2.59886384 11.04690112 -4 13 C-4.66 13.99 -5.32 14.98 -6 16 C-5.70623339 9.39025136 -4.82534565 4.82534565 0 0 Z " fill="#1E556C" transform="translate(198,59)"/>
<path d="M0 0 C0.99 0.99 1.98 1.98 3 3 C1.68 5.64 0.36 8.28 -1 11 C-2.5625 9.3125 -2.5625 9.3125 -4 7 C-3.6875 4.25 -3.6875 4.25 -3 2 C-2.01 2 -1.02 2 0 2 C0 1.34 0 0.68 0 0 Z " fill="#626AAB" transform="translate(113,142)"/>
<path d="M0 0 C0 0.99 0 1.98 0 3 C-0.69867188 3.27714844 -1.39734375 3.55429688 -2.1171875 3.83984375 C-3.02726563 4.20207031 -3.93734375 4.56429687 -4.875 4.9375 C-5.77992188 5.29714844 -6.68484375 5.65679687 -7.6171875 6.02734375 C-9.96137667 6.94901262 -9.96137667 6.94901262 -12 8 C-9.82021749 2.45146271 -6.05820197 -0.69236594 0 0 Z " fill="#A5CDF6" transform="translate(137,139)"/>
<path d="M0 0 C3.99455527 0.61454696 6.74466336 2.70646737 10 5 C9.34 5.66 8.68 6.32 8 7 C4.875 6.625 4.875 6.625 2 6 C1.34 4.02 0.68 2.04 0 0 Z " fill="#8483CF" transform="translate(49,105)"/>
<path d="M0 0 C0.66 0.33 1.32 0.66 2 1 C1.65066406 1.47050781 1.30132812 1.94101563 0.94140625 2.42578125 C0.48636719 3.04839844 0.03132812 3.67101562 -0.4375 4.3125 C-0.88996094 4.92738281 -1.34242188 5.54226562 -1.80859375 6.17578125 C-3.17336308 8.09677101 -3.17336308 8.09677101 -4 11 C-4.99 10.67 -5.98 10.34 -7 10 C-7 9 -7 8 -7 7 C-8.32 7.33 -9.64 7.66 -11 8 C-8.83385197 5.69125289 -6.60793392 3.94709819 -3.9375 2.25 C-2.89916016 1.57710937 -2.89916016 1.57710937 -1.83984375 0.890625 C-1.23269531 0.59671875 -0.62554687 0.3028125 0 0 Z " fill="#C6DBF1" transform="translate(146,181)"/>
<path d="M0 0 C0.99 0.33 1.98 0.66 3 1 C2.67 1.66 2.34 2.32 2 3 C2.66 3.66 3.32 4.32 4 5 C-0.29 5 -4.58 5 -9 5 C-8.01 4.67 -7.02 4.34 -6 4 C-5.67 3.01 -5.34 2.02 -5 1 C-4.01 1.33 -3.02 1.66 -2 2 C-1.34 1.34 -0.68 0.68 0 0 Z " fill="#BBA0E9" transform="translate(122,180)"/>
<path d="M0 0 C2.31 0.66 4.62 1.32 7 2 C5.25 4 5.25 4 3 6 C1.68 6 0.36 6 -1 6 C-1 5.34 -1 4.68 -1 4 C-1.66 3.67 -2.32 3.34 -3 3 C-2.01 2.01 -1.02 1.02 0 0 Z " fill="#7177BE" transform="translate(131,112)"/>
<path d="M0 0 C2.31 1.65 4.62 3.3 7 5 C6.01 5.66 5.02 6.32 4 7 C0.875 6.3125 0.875 6.3125 -2 5 C-2.33 4.01 -2.66 3.02 -3 2 C-2.01 1.34 -1.02 0.68 0 0 Z " fill="#294A7D" transform="translate(139,100)"/>
<path d="M0 0 C0.75 1.625 0.75 1.625 1 4 C-0.6875 7.25 -0.6875 7.25 -3 10 C-4.32 10 -5.64 10 -7 10 C-6.34 8.02 -5.68 6.04 -5 4 C-3.68 4 -2.36 4 -1 4 C-0.67 2.68 -0.34 1.36 0 0 Z " fill="#6C75B9" transform="translate(222,120)"/>
<path d="M0 0 C1.32 0.66 2.64 1.32 4 2 C2.6875 4.9375 2.6875 4.9375 1 8 C0.01 8.33 -0.98 8.66 -2 9 C-2.6875 6.75 -2.6875 6.75 -3 4 C-1.5625 1.6875 -1.5625 1.6875 0 0 Z " fill="#757BC2" transform="translate(220,116)"/>
<path d="M0 0 C0.66 0.33 1.32 0.66 2 1 C1.67 1.99 1.34 2.98 1 4 C1.66 4.33 2.32 4.66 3 5 C0 7 0 7 -2.6875 6.625 C-3.450625 6.41875 -4.21375 6.2125 -5 6 C-3.63016497 2.83884224 -3.0109362 2.0072908 0 0 Z " fill="#505E9A" transform="translate(135,96)"/>
<path d="M0 0 C2.005155 0.30077325 4.00398694 0.6435691 6 1 C8.99659454 1.36603354 11.99750222 1.68640579 15 2 C11.50430461 4.33046359 10.49326743 4.16043718 6.4375 3.75 C5.46683594 3.66234375 4.49617188 3.5746875 3.49609375 3.484375 C1 3 1 3 -1 1 C-0.67 0.67 -0.34 0.34 0 0 Z " fill="#234B67" transform="translate(86,171)"/>
<path d="M0 0 C-0.33 0.99 -0.66 1.98 -1 3 C-4.28696233 3.79953138 -5.71023192 4.09658936 -9 3 C-9 1.68 -9 0.36 -9 -1 C-5.38055101 -2.34053666 -3.42632833 -1.61798838 0 0 Z " fill="#114767" transform="translate(147,204)"/>
<path d="M0 0 C1.98 0.99 3.96 1.98 6 3 C5.01 3.99 4.02 4.98 3 6 C2.34 5.34 1.68 4.68 1 4 C-1.95409701 5.37154504 -4.44008376 6.98863724 -7 9 C-5.44499019 5.18315774 -2.96404505 2.80804268 0 0 Z " fill="#F1EFEA" transform="translate(149,144)"/>
<path d="M0 0 C2.4375 0.75 2.4375 0.75 5 2 C5.8125 4.125 5.8125 4.125 6 6 C5.01 6.33 4.02 6.66 3 7 C1.35 5.35 -0.3 3.7 -2 2 C-1.34 1.34 -0.68 0.68 0 0 Z " fill="#14466F" transform="translate(142,98)"/>
<path d="M0 0 C4.02992782 0.55312735 8.02022924 1.1558062 12 2 C11.01 2.495 11.01 2.495 10 3 C9.67 3.99 9.34 4.98 9 6 C6.03 4.35 3.06 2.7 0 1 C0 0.67 0 0.34 0 0 Z " fill="#455B8B" transform="translate(95,180)"/>
<path d="M0 0 C1.07156762 4.28627048 1.0365854 4.66075382 -0.9375 8.25 C-1.31777344 8.95640625 -1.69804687 9.6628125 -2.08984375 10.390625 C-2.39019531 10.92171875 -2.69054687 11.4528125 -3 12 C-3.33 11.01 -3.66 10.02 -4 9 C-4.66 8.67 -5.32 8.34 -6 8 C-4.02 5.36 -2.04 2.72 0 0 Z " fill="#B7D8F0" transform="translate(154,172)"/>
<path d="M0 0 C1.98 0 3.96 0 6 0 C6.33 1.65 6.66 3.3 7 5 C4.6875 5.625 4.6875 5.625 2 6 C1.01 5.34 0.02 4.68 -1 4 C-0.67 2.68 -0.34 1.36 0 0 Z " fill="#A899DE" transform="translate(124,179)"/>
<path d="M0 0 C0.66 0 1.32 0 2 0 C2 0.66 2 1.32 2 2 C1.34 2 0.68 2 0 2 C-0.33 4.64 -0.66 7.28 -1 10 C-2.32 10.33 -3.64 10.66 -5 11 C-4.54917531 9.53932801 -4.08906463 8.08151968 -3.625 6.625 C-3.36976563 5.81289062 -3.11453125 5.00078125 -2.8515625 4.1640625 C-2 2 -2 2 0 0 Z " fill="#2D6A96" transform="translate(202,115)"/>
<path d="M0 0 C0.99 0.99 1.98 1.98 3 3 C1.68 4.32 0.36 5.64 -1 7 C-1.99 6.67 -2.98 6.34 -4 6 C-3.6875 4.125 -3.6875 4.125 -3 2 C-2.01 1.34 -1.02 0.68 0 0 Z " fill="#435690" transform="translate(140,94)"/>
<path d="M0 0 C1.65 0 3.3 0 5 0 C5 1.32 5 2.64 5 4 C5.99 4.33 6.98 4.66 8 5 C5 6 5 6 1.8125 4.5625 C0.884375 4.046875 -0.04375 3.53125 -1 3 C-0.67 2.01 -0.34 1.02 0 0 Z " fill="#2F4C7D" transform="translate(105,183)"/>
<path d="M0 0 C0.66 0.33 1.32 0.66 2 1 C1.2884375 1.6496875 1.2884375 1.6496875 0.5625 2.3125 C-1.23686957 4.02309613 -1.23686957 4.02309613 -2 7 C-3.65 7 -5.3 7 -7 7 C-5.55609075 3.19333016 -3.65047197 1.73397418 0 0 Z " fill="#03415E" transform="translate(219,170)"/>
<path d="M0 0 C0.66 0.33 1.32 0.66 2 1 C2 2.32 2 3.64 2 5 C-1.05847848 5.54372951 -3.88772805 6 -7 6 C-4.69 4.02 -2.38 2.04 0 0 Z " fill="#A2A6D5" transform="translate(146,163)"/>
<path d="M0 0 C0.66 0.33 1.32 0.66 2 1 C2.625 4.0625 2.625 4.0625 3 7 C2.34 7 1.68 7 1 7 C0.67 7.99 0.34 8.98 0 10 C-0.33 10 -0.66 10 -1 10 C-1.02689216 8.52093108 -1.04634621 7.04172517 -1.0625 5.5625 C-1.07410156 4.73878906 -1.08570313 3.91507812 -1.09765625 3.06640625 C-1 1 -1 1 0 0 Z " fill="#465795" transform="translate(164,124)"/>
<path d="M0 0 C1.98 0.66 3.96 1.32 6 2 C6 2.66 6 3.32 6 4 C5.34 4 4.68 4 4 4 C3.67 5.32 3.34 6.64 3 8 C0.4345406 5.4345406 0.45953913 3.52313332 0 0 Z " fill="#3F548C" transform="translate(54,167)"/>
<path d="M0 0 C0 0.99 0 1.98 0 3 C0.66 3.33 1.32 3.66 2 4 C-0.3125 5.5625 -0.3125 5.5625 -3 7 C-3.99 6.67 -4.98 6.34 -6 6 C-5.67 5.34 -5.34 4.68 -5 4 C-4.34 4 -3.68 4 -3 4 C-2.67 3.34 -2.34 2.68 -2 2 C-2.66 1.67 -3.32 1.34 -4 1 C-2 0 -2 0 0 0 Z " fill="#083750" transform="translate(141,180)"/>
<path d="M0 0 C2.0625 0.1875 2.0625 0.1875 4 1 C4.33 1.99 4.66 2.98 5 4 C3.68 4.99 2.36 5.98 1 7 C1 5.68 1 4.36 1 3 C0.01 2.67 -0.98 2.34 -2 2 C-1.34 1.34 -0.68 0.68 0 0 Z " fill="#F0D7CB" transform="translate(148,147)"/>
<path d="M0 0 C0.99 0.33 1.98 0.66 3 1 C2.34 2.32 1.68 3.64 1 5 C0.01 4.67 -0.98 4.34 -2 4 C-2.66 5.98 -3.32 7.96 -4 10 C-5 8 -5 8 -4.25 5 C-3 2 -3 2 0 0 Z " fill="#BBD4EF" transform="translate(153,116)"/>
<path d="M0 0 C0.33 0.66 0.66 1.32 1 2 C-2.63 2 -6.26 2 -10 2 C-9.67 1.34 -9.34 0.68 -9 0 C-5.44307323 -0.85056945 -3.50729422 -1.16909807 0 0 Z " fill="#D6DCE0" transform="translate(142,209)"/>
<path d="M0 0 C1.8871875 0.0309375 1.8871875 0.0309375 3.8125 0.0625 C1.90848862 1.96651138 0.47824314 2.99770439 -2.234375 3.26171875 C-4.21983273 3.2511578 -6.2044914 3.16165043 -8.1875 3.0625 C-6.45706736 -0.39836529 -3.47359009 -0.0569441 0 0 Z " fill="#495C96" transform="translate(194.1875,156.9375)"/>
<path d="M0 0 C0.66 0.33 1.32 0.66 2 1 C2.4140625 3.28515625 2.4140625 3.28515625 2.625 6.0625 C2.69976562 6.98160156 2.77453125 7.90070313 2.8515625 8.84765625 C2.92503906 9.91306641 2.92503906 9.91306641 3 11 C2.01 10.67 1.02 10.34 0 10 C0.020625 9.21625 0.04125 8.4325 0.0625 7.625 C0.18684063 5.01885039 0.18684063 5.01885039 -1 3 C-0.67 2.01 -0.34 1.02 0 0 Z " fill="#194C64" transform="translate(167,128)"/>
<path d="M0 0 C0.66 0.99 1.32 1.98 2 3 C0.71034824 4.37562854 -0.62689293 5.70766393 -2 7 C-2.66 7 -3.32 7 -4 7 C-3.6875 4.625 -3.6875 4.625 -3 2 C-2.01 1.34 -1.02 0.68 0 0 Z " fill="#094664" transform="translate(202,57)"/>
<path d="M0 0 C0.99 0.33 1.98 0.66 3 1 C2.34 1 1.68 1 1 1 C1 1.66 1 2.32 1 3 C1.99 3.33 2.98 3.66 4 4 C1.59454362 5.20272819 0.05003047 5.10071472 -2.625 5.0625 C-3.85089844 5.04896484 -3.85089844 5.04896484 -5.1015625 5.03515625 C-6.04128906 5.01775391 -6.04128906 5.01775391 -7 5 C-7 4.67 -7 4.34 -7 4 C-6.030625 3.71125 -5.06125 3.4225 -4.0625 3.125 C-0.89335797 2.35785318 -0.89335797 2.35785318 0 0 Z " fill="#063757" transform="translate(137,204)"/>
<path d="M0 0 C-0.66 1.32 -1.32 2.64 -2 4 C-4.64 3.34 -7.28 2.68 -10 2 C-10 1.67 -10 1.34 -10 1 C-3.375 0 -3.375 0 0 0 Z " fill="#0A4763" transform="translate(137,204)"/>
<path d="M0 0 C3.625 0.25 3.625 0.25 5.5625 1.75 C5.913125 2.245 6.26375 2.74 6.625 3.25 C5.366875 3.29125 4.10875 3.3325 2.8125 3.375 C2.10480469 3.39820313 1.39710937 3.42140625 0.66796875 3.4453125 C-1.375 3.25 -1.375 3.25 -4.375 1.25 C-3.375 0.25 -3.375 0.25 0 0 Z " fill="#174A65" transform="translate(59.375,165.75)"/>
<path d="M0 0 C0.66 0.33 1.32 0.66 2 1 C1.01 1.66 0.02 2.32 -1 3 C-0.67 2.01 -0.34 1.02 0 0 Z M-2 3 C-1.67 3.66 -1.34 4.32 -1 5 C-1.33 5.66 -1.66 6.32 -2 7 C-1.34 7 -0.68 7 0 7 C-0.33 8.32 -0.66 9.64 -1 11 C-1.99 9.68 -2.98 8.36 -4 7 C-3.34 5.68 -2.68 4.36 -2 3 Z " fill="#EFC3B2" transform="translate(143,152)"/>
<path d="M0 0 C1.98 0.99 3.96 1.98 6 3 C6 3.99 6 4.98 6 6 C4.68 5.34 3.36 4.68 2 4 C1.01 4.66 0.02 5.32 -1 6 C-1.33 5.34 -1.66 4.68 -2 4 C-1.34 4 -0.68 4 0 4 C0 2.68 0 1.36 0 0 Z " fill="#144661" transform="translate(76,56)"/>
<path d="M0 0 C1.5625 1.25 1.5625 1.25 3 3 C2.6875 5.1875 2.6875 5.1875 2 7 C0.68 7 -0.64 7 -2 7 C-1.34 4.69 -0.68 2.38 0 0 Z " fill="#8787CB" transform="translate(145,38)"/>
<path d="M0 0 C1.32 0.66 2.64 1.32 4 2 C3.01 3.98 2.02 5.96 1 8 C0.17361624 5.10765685 0 3.11257569 0 0 Z " fill="#073F5B" transform="translate(156,125)"/>
<path d="M0 0 C0.66 0 1.32 0 2 0 C2 0.66 2 1.32 2 2 C3.32 2.33 4.64 2.66 6 3 C2.77208445 5.1519437 1.71599191 5.20086443 -2 5 C-1.34 4.67 -0.68 4.34 0 4 C0 2.68 0 1.36 0 0 Z " fill="#165479" transform="translate(201,121)"/>
<path d="M0 0 C1.9375 0.3125 1.9375 0.3125 4 1 C4.33 1.99 4.66 2.98 5 4 C5.66 4.66 6.32 5.32 7 6 C6.34 6 5.68 6 5 6 C4.67 6.66 4.34 7.32 4 8 C0 2.25 0 2.25 0 0 Z " fill="#094362" transform="translate(108,41)"/>
<path d="M0 0 C0.33 1.32 0.66 2.64 1 4 C0.01 4.66 -0.98 5.32 -2 6 C-2.99 5.01 -3.98 4.02 -5 3 C-2 1 -2 1 0 0 Z " fill="#1A475F" transform="translate(131,169)"/>
<path d="M0 0 C1.32 1.65 2.64 3.3 4 5 C3.01 5.33 2.02 5.66 1 6 C1 5.34 1 4.68 1 4 C-1.475 3.01 -1.475 3.01 -4 2 C-2.68 1.34 -1.36 0.68 0 0 Z " fill="#254870" transform="translate(198,163)"/>
<path d="M0 0 C0.99 0.99 1.98 1.98 3 3 C1.625 4.5 1.625 4.5 0 6 C-0.66 6 -1.32 6 -2 6 C-2.33 5.01 -2.66 4.02 -3 3 C-2.01 2.01 -1.02 1.02 0 0 Z " fill="#455990" transform="translate(106,156)"/>
<path d="M0 0 C0 3 0 3 -2 6 C-2.33 6.99 -2.66 7.98 -3 9 C-3.66 8.67 -4.32 8.34 -5 8 C-5 5 -5 5 -2.5 2.3125 C-1.675 1.549375 -0.85 0.78625 0 0 Z " fill="#04334F" transform="translate(148,156)"/>
<path d="M0 0 C1.125 1.75 1.125 1.75 2 4 C1.125 6.25 1.125 6.25 0 8 C-0.33 7.01 -0.66 6.02 -1 5 C-1.66 4.67 -2.32 4.34 -3 4 C-2.01 2.68 -1.02 1.36 0 0 Z " fill="#10435B" transform="translate(156,145)"/>
<path d="M0 0 C0.99 0.33 1.98 0.66 3 1 C2.67 3.31 2.34 5.62 2 8 C1.34 7.67 0.68 7.34 0 7 C-1.26229508 2.52459016 -1.26229508 2.52459016 0 0 Z " fill="#114E6A" transform="translate(154,128)"/>
<path d="M0 0 C0.33 0.99 0.66 1.98 1 3 C-0.25 4.5 -0.25 4.5 -2 6 C-3.32 6 -4.64 6 -6 6 C-6 5.34 -6 4.68 -6 4 C-4.03852126 2.61061923 -2.03833424 1.2739589 0 0 Z " fill="#3D4F92" transform="translate(146,44)"/>
<path d="M0 0 C1.134375 0.020625 2.26875 0.04125 3.4375 0.0625 C1.7875 1.3825 0.1375 2.7025 -1.5625 4.0625 C-2.5525 3.0725 -3.5425 2.0825 -4.5625 1.0625 C-3.5625 0.0625 -3.5625 0.0625 0 0 Z " fill="#4780A3" transform="translate(221.5625,165.9375)"/>
<path d="M0 0 C0.66 0 1.32 0 2 0 C2.33 0.99 2.66 1.98 3 3 C2.34 3.66 1.68 4.32 1 5 C-1.125 4.625 -1.125 4.625 -3 4 C-1.625 2 -1.625 2 0 0 Z " fill="#39528A" transform="translate(102,160)"/>
<path d="M0 0 C1.32 0.33 2.64 0.66 4 1 C4 2.32 4 3.64 4 5 C2.02 5.99 2.02 5.99 0 7 C0 4.69 0 2.38 0 0 Z " fill="#4187B4" transform="translate(124,148)"/>
<path d="M0 0 C0.66 0.33 1.32 0.66 2 1 C2 2.65 2 4.3 2 6 C0.68 5.34 -0.64 4.68 -2 4 C-2.33 4.99 -2.66 5.98 -3 7 C-3 5.68 -3 4.36 -3 3 C-2.34 3 -1.68 3 -1 3 C-0.67 2.01 -0.34 1.02 0 0 Z " fill="#395088" transform="translate(162,139)"/>
<path d="M0 0 C0.66 0 1.32 0 2 0 C2 2.97 2 5.94 2 9 C1.34 8.67 0.68 8.34 0 8 C-0.6875 4.5 -0.6875 4.5 -1 1 C-0.67 0.67 -0.34 0.34 0 0 Z " fill="#586CA4" transform="translate(161,125)"/>
<path d="M0 0 C2.97 1.98 2.97 1.98 6 4 C5.67 4.99 5.34 5.98 5 7 C4.34 7 3.68 7 3 7 C0 2.61538462 0 2.61538462 0 0 Z " fill="#19465D" transform="translate(209,182)"/>
<path d="M0 0 C0 1.32 0 2.64 0 4 C-1.98 4 -3.96 4 -6 4 C-2.25 0 -2.25 0 0 0 Z " fill="#CBA9F5" transform="translate(116,180)"/>
<path d="M0 0 C0.66 0.33 1.32 0.66 2 1 C2 1.66 2 2.32 2 3 C0.02 3.99 -1.96 4.98 -4 6 C-3.6875 4.125 -3.6875 4.125 -3 2 C-2.01 1.34 -1.02 0.68 0 0 Z " fill="#144662" transform="translate(137,167)"/>
<path d="M0 0 C0.33 0 0.66 0 1 0 C1.66 2.64 2.32 5.28 3 8 C2.01 8 1.02 8 0 8 C-0.66 7.34 -1.32 6.68 -2 6 C-1.34 4.02 -0.68 2.04 0 0 Z " fill="#32487E" transform="translate(210,152)"/>
<path d="M0 0 C2.88575819 0.39803561 3.82189513 0.79009069 5.75 3.0625 C6.1625 3.701875 6.575 4.34125 7 5 C3.47967572 5 2.5614657 4.29648649 0 2 C0 1.34 0 0.68 0 0 Z " fill="#5C669C" transform="translate(73,146)"/>
<path d="M0 0 C0.66 0.33 1.32 0.66 2 1 C2.625 3.5625 2.625 3.5625 3 6 C0.525 5.01 0.525 5.01 -2 4 C-1.34 2.68 -0.68 1.36 0 0 Z " fill="#57629F" transform="translate(57,127)"/>
<path d="M0 0 C0.66 0 1.32 0 2 0 C2 1.98 2 3.96 2 6 C0.68 5.67 -0.64 5.34 -2 5 C-1.34 3.35 -0.68 1.7 0 0 Z " fill="#8289C2" transform="translate(213,56)"/>
</svg>
